<?xml version="1.0" encoding="UTF-8"?>
<svg width="43px" height="40px" viewBox="0 0 43 40" version="1.1" xmlns="http://www.w3.org/2000/svg" xmlns:xlink="http://www.w3.org/1999/xlink">
    <title>Shape</title>
    <g id="Page-1" stroke="none" stroke-width="1" fill="none" fill-rule="evenodd">
        <g id="Desktop-HD-Copy-2" transform="translate(-53.000000, -27.000000)" fill="#FFFFFF" fill-rule="nonzero">
            <path d="M74.5,27 L53,42.8071694 L56.7258969,47.8588765 L59.3831561,45.9054765 L59.3831561,67 L69.4164109,67 L69.4164109,59.1860082 C69.4164109,56.3833381 71.6935007,54.112344 74.4996073,54.112344 C77.3057139,54.112344 79.5816254,56.3833381 79.5816254,59.1860082 L79.5816254,67 L89.6168439,67 L89.6168439,45.9050844 L92.2737104,47.8584844 L96,42.8067773 L74.5,27 Z M79.2621381,45.4189251 L74.4980373,50 L69.7372218,45.4189251 C68.7097431,44.3632775 68.762308,42.7031577 69.8571354,41.7108886 C70.9515521,40.7194117 72.6722299,40.7713028 73.7009405,41.8273465 L74.49968,42.6473055 L75.2984194,41.8273465 C76.3271301,40.7713028 78.0473972,40.7194117 79.1422246,41.7108886 C80.237052,42.7035539 80.2912595,44.3632775 79.2621381,45.4189251 Z" id="Shape"></path>
        </g>
    </g>
</svg>